0
SECTION
2
HEADER
9
$INSUNITS
70
4
9
$ACADVER
1
AC1014
9
$HANDSEED
5
FFFF
0
ENDSEC
0
SECTION
2
TABLES
0
TABLE
2
VPORT
5
8
100
AcDbSymbolTable
0
ENDTAB
0
TABLE
2
LTYPE
5
5
100
AcDbSymbolTable
0
LTYPE
5
14
100
AcDbSymbolTableRecord
100
AcDbLinetypeTableRecord
2
BYBLOCK
70
0
0
LTYPE
5
15
100
AcDbSymbolTableRecord
100
AcDbLinetypeTableRecord
2
BYLAYER
70
0
0
LTYPE
5
16
100
AcDbSymbolTableRecord
100
AcDbLinetypeTableRecord
2
DASHED
70
0
3
Dashed __ __ __ __ __ __ __ __ __ __ __ __ __ _
72
65
73
2
40
0.75
49
0.5
74
0
49
-0.25
74
0
0
ENDTAB
0
TABLE
2
LAYER
5
2
100
AcDbSymbolTable
70
2
0
LAYER
5
50
100
AcDbSymbolTableRecord
100
AcDbLayerTableRecord
2
0
70
0
62
7
6
CONTINUOUS
0
ENDTAB
0
TABLE
2
STYLE
5
3
100
AcDbSymbolTable
70
1
0
STYLE
5
11
100
AcDbSymbolTableRecord
100
AcDbTextStyleTableRecord
2
STANDARD
70
0
0
ENDTAB
0
TABLE
2
VIEW
5
6
100
AcDbSymbolTable
70
0
0
ENDTAB
0
TABLE
2
UCS
5
7
100
AcDbSymbolTable
70
0
0
ENDTAB
0
TABLE
2
APPID
5
9
100
AcDbSymbolTable
70
2
0
APPID
5
12
100
AcDbSymbolTableRecord
100
AcDbRegAppTableRecord
2
ACAD
70
0
0
ENDTAB
0
TABLE
2
DIMSTYLE
5
A
100
AcDbSymbolTable
70
1
0
ENDTAB
0
TABLE
2
BLOCK_RECORD
5
1
100
AcDbSymbolTable
70
1
0
BLOCK_RECORD
5
1F
100
AcDbSymbolTableRecord
100
AcDbBlockTableRecord
2
*MODEL_SPACE
0
BLOCK_RECORD
5
1B
100
AcDbSymbolTableRecord
100
AcDbBlockTableRecord
2
*PAPER_SPACE
0
ENDTAB
0
ENDSEC
0
SECTION
2
BLOCKS
0
BLOCK
5
20
100
AcDbEntity
100
AcDbBlockBegin
2
*MODEL_SPACE
0
ENDBLK
5
21
100
AcDbEntity
100
AcDbBlockEnd
0
BLOCK
5
1C
100
AcDbEntity
100
AcDbBlockBegin
2
*PAPER_SPACE
0
ENDBLK
5
1D
100
AcDbEntity
100
AcDbBlockEnd
0
ENDSEC
0
SECTION
2
ENTITIES
0
POINT
5
100
100
AcDbEntity
8
0
100
AcDbPoint
10
-8.8817841970012523e-15
20
16.75
30
0
0
LWPOLYLINE
5
101
100
AcDbEntity
8
0
100
AcDbPolyline
90
4
70
1
43
0.0
10
-26.669999999999995
20
0
10
26.669999999999977
20
0
10
26.669999999999977
20
22.200000000000003
10
-26.669999999999995
20
22.200000000000003
0
LINE
5
102
100
AcDbEntity
8
0
100
AcDbLine
10
-26.669999999999987
20
18.400000000000002
30
0
11
26.669999999999973
21
18.400000000000002
31
0
6
DASHED
0
LINE
5
103
100
AcDbEntity
8
0
100
AcDbLine
10
-8.8817841970012523e-15
20
18.400000000000002
30
0
11
-8.8817841970012523e-15
21
16.75
31
0
6
DASHED
0
LINE
5
104
100
AcDbEntity
8
0
100
AcDbLine
10
6.9999999999999947
20
18.700000000000003
30
0
11
-7.0000000000000053
21
18.699999999999996
31
0
0
LINE
5
105
100
AcDbEntity
8
0
100
AcDbLine
10
-7.0000000000000053
20
18.699999999999996
30
0
11
-7.0000000000000062
21
14.799999999999997
31
0
0
LINE
5
106
100
AcDbEntity
8
0
100
AcDbLine
10
-7.0000000000000062
20
14.799999999999997
30
0
11
6.9999999999999947
21
14.800000000000001
31
0
0
LINE
5
107
100
AcDbEntity
8
0
100
AcDbLine
10
6.9999999999999947
20
14.800000000000001
30
0
11
6.9999999999999947
21
18.700000000000003
31
0
0
LINE
5
108
100
AcDbEntity
8
0
100
AcDbLine
10
6.9999999999999947
20
18.700000000000003
30
0
11
-7.0000000000000062
21
14.799999999999997
31
0
6
DASHED
0
LINE
5
109
100
AcDbEntity
8
0
100
AcDbLine
10
-7.0000000000000053
20
18.699999999999996
30
0
11
6.9999999999999947
21
14.800000000000001
31
0
6
DASHED
0
LWPOLYLINE
5
110
100
AcDbEntity
8
0
100
AcDbPolyline
90
4
70
1
43
0.0
10
-7.0000000000000053
20
18.699999999999996
10
6.9999999999999947
20
18.700000000000003
10
6.9999999999999947
20
22.199999999999996
10
-7.0000000000000089
20
22.199999999999996
0
LWPOLYLINE
5
111
100
AcDbEntity
8
0
100
AcDbPolyline
90
8
70
1
43
0.0
10
4.46999999999999
20
16.800000000000001
42
0.41421356237309553
10
2.8699999999999908
20
18.400000000000002
10
-2.8700000000000054
20
18.400000000000002
42
0.41421356237309553
10
-4.4700000000000051
20
16.800000000000001
10
-4.4700000000000042
20
16.740000000000002
42
0.41421356237309576
10
-2.8700000000000054
20
15.140000000000002
10
2.8699999999999908
20
15.140000000000001
42
0.41421356237309576
10
4.46999999999999
20
16.740000000000002
0
LINE
5
112
100
AcDbEntity
8
0
100
AcDbLine
10
-8.8817841970012523e-15
20
16.75
30
0
11
-8.8817841970012523e-15
21
16.550000000000001
31
0
6
DASHED
0
LINE
5
113
100
AcDbEntity
8
0
100
AcDbLine
10
-7.0000000000000062
20
16.550000000000001
30
0
11
6.9999998435378075
21
16.550000000000001
31
0
0
LWPOLYLINE
5
114
100
AcDbEntity
8
0
100
AcDbPolyline
90
8
70
1
43
0.0
10
-4.8700000000000045
20
16.739999999999995
42
0.41421356237309442
10
-2.8700000000000054
20
14.74
10
2.8699999999999921
20
14.74
42
0.41421356237309576
10
4.8699999999999921
20
16.740000000000002
10
4.8699999999999921
20
16.800000000000001
42
0.41421356237309542
10
2.8699999999999921
20
18.800000000000001
10
-2.8700000000000054
20
18.800000000000001
42
0.41421356237309576
10
-4.8700000000000054
20
16.799999999999997
0
LWPOLYLINE
5
115
100
AcDbEntity
8
0
100
AcDbPolyline
90
4
70
1
43
0.0
10
-7.0000000000000089
20
22.199999999999996
10
6.9999999999999947
20
22.199999999999996
10
6.9999999999999947
20
24.000000000000004
10
-7.0000000000000089
20
24.000000000000004
0
ENDSEC
0
SECTION
2
OBJECTS
0
DICTIONARY
5
C
100
AcDbDictionary
3
ACAD_GROUP
350
D
3
ACAD_MLINESTYLE
350
17
0
DICTIONARY
5
D
100
AcDbDictionary
0
DICTIONARY
5
1A
330
C
100
AcDbDictionary
0
DICTIONARY
5
17
100
AcDbDictionary
0
ENDSEC
0
EOF
